# xmcd CD database file
#
# Track frame offsets:
#	150
#	18991
#	40342
#	66975
#	83876
#	102826
#	116902
#	137613
#	159123
#	173421
#	195446
#	218608
#
# Disc length: 3119 seconds
#
# Revision: 0
# Processed by: cddbd v1.5.2PL0 Copyright (c) Steve Scherf et al.
# Submitted via: CDex 1.51
#
DISCID=940c2d0c
DTITLE=Matyas Pribojszki Band - How Many More
DYEAR=1900
DGENRE=Blues
TTITLE0=How Many More
TTITLE1=Hard Working Man
TTITLE2=I'll Play the Blues for You
TTITLE3=Old Fellows
TTITLE4=Change in the Water
TTITLE5=Glare of a Sea-Dog
TTITLE6=Ain't  the Fine
TTITLE7=Mystery Train
TTITLE8=The Moonshiner
TTITLE9=Dog Without a Bone
TTITLE10=It's Too Late Brother
TTITLE11=Old Rocking Chair
EXTD=
EXTT0=
EXTT1=
EXTT2=
EXTT3=
EXTT4=
EXTT5=
EXTT6=
EXTT7=
EXTT8=
EXTT9=
EXTT10=
EXTT11=
PLAYORDER=
